<svg width="749" height="720" viewBox="0 0 749 720" fill="none" xmlns="http://www.w3.org/2000/svg">
<path d="M333.18 640.486C402.005 676.244 470.982 662 482.478 659.626C626.06 627.674 703.537 446.045 667.807 300.585C662.832 280.48 626.407 133.13 497.054 95.4092C409.692 70.0424 321.663 106.733 273.033 149.334C134.148 270.178 174.533 557.768 333.18 640.486Z" stroke="#ACACAC" stroke-opacity="0.15" stroke-width="1.58525" stroke-miterlimit="10"/>
<path d="M290.079 627.846C361.337 660.597 433.952 646.011 445.995 643.35C597.243 611.029 682.819 438.337 649.007 301.927C644.438 282.996 609.932 144.695 475.24 111.155C384.284 88.7079 291.221 124.739 239.029 165.563C90.6835 281.822 125.707 552.63 290.079 627.846Z" stroke="#ACACAC" stroke-opacity="0.15" stroke-width="1.58525" stroke-miterlimit="10"/>
<path d="M250.161 568.125C316.661 593.659 385.653 580.274 397.422 577.757C541.543 548.297 627.662 404.615 599.68 293.236C595.835 277.914 567.381 164.702 440.838 139.897C355.499 123.18 266.222 154.63 215.637 189.24C71.9039 287.659 96.8857 509.465 250.161 568.125Z" stroke="#ACACAC" stroke-opacity="0.15" stroke-width="1.58525" stroke-miterlimit="10"/>
<path d="M216.437 509.152C271.061 527.552 328.778 516.598 338.515 514.625C458.718 490.743 532.885 381.395 511.716 297.653C508.815 285.996 487.24 201.08 382.576 184.071C312.005 172.455 237.464 197.236 194.585 224.001C73.7108 299.888 90.427 466.736 216.437 509.152Z" stroke="#ACACAC" stroke-opacity="0.15" stroke-width="1.58525" stroke-miterlimit="10"/>
<path d="M231.639 461.331C274.325 475.575 319.334 467.11 326.816 465.623C420.56 447.09 478.572 361.793 462.075 296.58C459.661 287.616 442.98 221.287 361.505 207.921C306.598 198.857 248.36 218.23 215.093 238.926C120.269 298.239 133.495 428.258 231.639 461.331Z" stroke="#ACACAC" stroke-opacity="0.15" stroke-width="1.58525" stroke-miterlimit="10"/>
<path d="M184.278 457.853C226.964 472.097 271.973 463.632 279.455 462.145C373.25 443.411 430.989 358.257 414.492 293.045C412.078 284.081 395.397 217.752 313.922 204.386C259.015 195.322 200.776 214.695 167.51 235.391C72.7374 294.504 85.912 424.723 184.278 457.853Z" stroke="#ACACAC" stroke-opacity="0.15" stroke-width="1.58525" stroke-miterlimit="10"/>
<path d="M145.023 460.536C187.709 474.78 232.717 466.314 240.199 464.827C333.995 446.094 391.733 360.94 375.237 295.727C372.823 286.763 356.142 220.434 274.667 207.068C219.759 198.004 161.521 217.377 128.254 238.073C33.4301 297.386 46.6047 427.606 145.023 460.536Z" stroke="#ACACAC" stroke-opacity="0.15" stroke-width="1.58525" stroke-miterlimit="10"/>
<path d="M570.532 368.46C594.022 340.745 572.386 298.155 569.128 291.539C556.231 266.392 531.785 243.819 523.733 247.511C515.408 251.346 534.921 279.273 532.219 325.408C530.113 361.004 516.556 378.67 525.72 385.316C534.337 392.249 557.974 383.177 570.532 368.46Z" stroke="#ACACAC" stroke-opacity="0.15" stroke-width="1.58525" stroke-miterlimit="10"/>
</svg>
