<svg width="1020" height="1014" viewBox="0 0 1020 1014" fill="none" xmlns="http://www.w3.org/2000/svg">
<path d="M709.759 305.827C675.706 236.143 611.787 206.561 601.134 201.631C466.712 141.903 296.39 241.814 238.583 379.994C230.622 399.114 172.249 539.226 253.788 646.494C308.923 718.853 401.509 741.725 465.94 736.409C649.465 721.888 788.079 466.691 709.759 305.827Z" stroke="#ACACAC" stroke-opacity="0.15" stroke-width="1.58525" stroke-miterlimit="10"/>
<path d="M736.886 341.627C699.089 272.912 632.042 241.441 620.779 236.416C479.975 172.425 308.459 260.335 254.493 390.099C246.904 408.033 192.372 539.73 280.69 646.814C340.45 718.963 436.69 745.36 502.928 743.591C691.331 738.383 824.27 499.866 736.886 341.627Z" stroke="#ACACAC" stroke-opacity="0.15" stroke-width="1.58525" stroke-miterlimit="10"/>
<path d="M733.448 413.377C695.182 353.295 631.762 323.013 620.804 318.035C487.432 255.984 332.736 320.251 288.973 426.427C282.95 441.031 238.477 548.96 325.44 644.173C384.094 708.376 474.565 736.203 535.815 738.474C709.898 744.862 821.76 551.708 733.448 413.377Z" stroke="#ACACAC" stroke-opacity="0.15" stroke-width="1.58525" stroke-miterlimit="10"/>
<path d="M725.475 480.843C692.512 433.559 639.602 408.03 630.601 403.825C519.772 351.517 395.108 395.296 362.309 475.203C357.707 486.298 324.536 567.391 398.55 643.323C448.367 694.641 523.026 719.062 573.416 723.055C715.72 733.957 801.534 589.897 725.475 480.843Z" stroke="#ACACAC" stroke-opacity="0.15" stroke-width="1.58525" stroke-miterlimit="10"/>
<path d="M684.808 510.239C658.969 473.398 617.754 453.428 610.856 450.173C524.477 409.306 427.105 443.361 401.574 505.594C398.182 514.236 372.134 577.476 429.675 636.686C468.42 676.634 526.757 695.705 565.809 698.858C677.315 707.587 744.026 595.207 684.808 510.239Z" stroke="#ACACAC" stroke-opacity="0.15" stroke-width="1.58525" stroke-miterlimit="10"/>
<path d="M720.81 541.209C694.971 504.367 653.756 484.397 646.857 481.142C560.318 440.406 463.251 474.508 437.719 536.741C434.327 545.383 408.28 608.623 465.82 667.833C504.565 707.781 562.903 726.852 601.955 730.005C713.3 738.865 780.172 626.354 720.81 541.209Z" stroke="#ACACAC" stroke-opacity="0.15" stroke-width="1.58525" stroke-miterlimit="10"/>
<path d="M753.96 562.404C728.121 525.562 686.906 505.593 680.007 502.338C593.468 461.601 496.401 495.704 470.87 557.936C467.478 566.578 441.43 629.818 498.971 689.029C537.716 728.977 596.053 748.048 635.105 751.2C746.611 759.93 813.483 647.419 753.96 562.404Z" stroke="#ACACAC" stroke-opacity="0.15" stroke-width="1.58525" stroke-miterlimit="10"/>
<path d="M357.151 383.298C321.783 391.604 313.84 438.709 312.523 445.965C307.931 473.851 314.153 506.538 322.822 508.359C331.796 510.229 332.723 476.173 362.338 440.696C385.206 413.335 406.612 407.2 403.2 396.406C400.397 385.707 376 378.939 357.151 383.298Z" stroke="#ACACAC" stroke-opacity="0.15" stroke-width="1.58525" stroke-miterlimit="10"/>
<path fill-rule="evenodd" clip-rule="evenodd" d="M256.956 187.661C253.174 192.439 260.172 200.168 262.3 204.78C268.533 218.297 271.402 233.571 279.439 245.969C281.464 249.094 289.164 258.773 285.805 263.378C275.65 277.305 265.216 275.551 250.959 278.632C248.62 279.137 235.65 281.441 235.12 285.122C234.385 290.22 248.299 292.222 251.39 292.899C267.403 296.401 277.859 299.478 288.843 311.304C293.063 315.849 299.061 321.282 294.085 329.128C280.026 351.289 262.188 351.675 240.644 355.211C238.652 355.538 216.393 358.493 215.808 362.569C215.361 365.664 225.943 368.712 227.987 369.187C242.31 372.514 258.165 373.205 269.42 382.134C275.343 386.838 287.481 394.72 286.12 404.177C285.602 407.773 281.755 411.208 279.078 413.647C277.71 414.892 273.32 418.283 274.687 417.036C285.067 407.579 312.084 406.153 319.778 414.438C320.886 415.632 327.117 420.157 326.845 422.046C326.641 423.472 322.912 426.242 321.843 427.214C314.124 434.247 302.555 435.721 293.43 437.219C289.924 437.794 283.004 440.607 283.004 440.607C283.004 440.607 291.605 440.255 295.788 440.568C305.619 441.302 318.141 441.073 325.757 446.857C327.656 448.3 332.503 449.215 333.128 452.358C333.515 454.294 330.821 456.383 329.863 457.774C324.153 466.084 320.995 474.038 313.642 481.715C313.034 482.35 301.29 492.77 301.695 493.208C303.1 494.722 312.366 485.319 313.644 484.154C324.01 474.711 336.931 462.602 348.982 455.628C376.75 439.553 374.063 444.164 399.478 424.907C406.321 419.723 421.898 403.714 429.956 403.25C432.219 403.12 465.192 397.987 465.586 395.258C466.136 391.431 465.244 368.012 464.426 363.91C460.836 345.894 474.696 338.314 487.483 324.597C504.056 306.821 511.799 295.09 529.913 278.59L558.097 252.916C549.023 261.182 517.638 269.043 513.314 255.845C511.904 251.546 513.856 243.622 515.742 238.975C516.717 236.571 520.412 233.448 518.9 231.82C518.9 231.82 513.781 236.485 513.59 236.658C510.88 239.127 507.357 240.816 503.986 241.742C493.093 244.741 478.187 239.549 475.643 229.085C472.943 217.98 477.627 204.324 477.326 192.738C477.287 191.212 478.592 183.548 478.026 182.938C477.956 182.86 469.088 196.886 468.029 198.154C458.918 209.05 449.363 219.433 438.729 229.122C436.147 231.472 431.207 237.18 427.562 236.661C413.917 234.711 417.596 216.418 417.22 205.963C417.116 203.123 416.197 200.544 416.286 197.65C416.297 197.306 417.317 193.06 416.588 193.101C412.092 193.36 406.5 205.081 405.258 207.698C399.519 219.803 387.345 241.166 372.573 232.584C359.126 224.774 362.969 208.406 363.21 194.086C363.22 193.496 364.969 177.24 363.799 177.669C361.913 178.364 357.863 188.384 356.661 190.281C350.383 200.173 341.635 215.306 330.838 221.746C318.739 228.96 305.084 222.557 295.961 217.482C279.78 208.476 266.741 199.008 254.397 185.719" fill="#FFD630"/>
<path fill-rule="evenodd" clip-rule="evenodd" d="M462.847 400.046C462.513 400.147 462.189 400.242 461.886 400.326C451.727 403.223 441.202 404.94 430.809 406.118C424.829 406.788 419.959 411.317 415.018 415.394C401.348 426.686 387.8 438.048 371.718 446.339C358.356 453.232 345.195 460.334 333.508 470.046C325.252 476.912 317.737 484.471 309.45 491.679C305.94 494.732 300.8 498.362 299.202 494.117C298.351 491.833 300.913 489.929 302.817 488.114C305.743 485.316 308.829 482.72 311.749 479.881C312.071 479.555 315.403 475.833 317.809 472.223C321.795 466.241 324.521 459.705 329.408 454.186C329.515 454.067 329.622 453.939 329.729 453.811C330.167 453.284 331.781 453.152 329.128 451.604C324.637 448.991 320.187 446.385 315.384 445.272C305.032 442.88 294.13 442.992 283.923 443.364L282.656 443.373C279.966 442.806 279.4 439.03 282.646 437.747C294.738 432.962 309.303 433.89 319.077 425.777C320.813 424.334 322.258 423.172 323.53 421.852C323.53 421.852 319.639 418.28 317.216 416.051C312.69 412.003 305.55 411.728 298.808 412.07C292.2 412.41 285.51 413.772 279.873 417.06C279.873 417.06 276.67 420.375 274.58 420.385C273.469 420.391 273.201 420.174 272.798 419.92C272.142 419.511 271.571 418.458 271.571 418.458C271.38 417.879 271.287 417.773 271.394 416.763C271.394 416.763 271.594 415.57 273.347 414.125C274.359 413.29 275.914 412.28 275.914 412.28C279.312 409.468 283.331 406.406 283.074 402.28C282.692 396.164 276.937 392.035 272.374 388.461C267.353 384.534 262.207 380.86 256.31 378.812C247.063 375.604 237.192 374.707 227.575 372.535C219.579 370.732 208.765 366.68 213.238 360.047C215.645 356.477 220.305 355.764 224.138 354.784C242.654 350.08 263.322 352.049 279.205 340.319C284.231 336.613 288.641 331.844 291.496 326.36C293.945 321.655 288.72 316.088 283.75 311.318C275.213 303.112 263.419 299.264 251.371 296.537C245.749 295.265 240.438 293.125 235.66 289.73C232.971 287.812 224.946 292.875 232.429 282.646C235.208 278.846 240.051 277.711 244.233 276.685C250.354 275.182 256.551 274.373 262.783 273.386C270.604 272.133 278.051 268.612 282.97 262.234C283.083 262.089 283.198 261.936 283.308 261.79C284.164 260.65 283.476 261.582 283.538 261.454C284.322 259.834 283.784 261.336 283.709 260.221C283.346 254.697 278.48 249.971 275.636 244.985C268.676 232.766 265.877 218.494 260.356 206.051C257.648 199.951 252.234 194.209 254.112 188.537L252.865 187.144L255.933 184.29C256.222 184.593 256.512 184.897 256.806 185.192C268.443 197.167 282.45 207.032 297.323 215.034C307.81 220.677 320.491 225.202 330.694 217.883C340.379 210.932 346.385 199.77 352.872 189.211C353.087 188.859 353.421 188.317 353.459 188.257C353.495 188.195 353.499 188.187 353.537 188.117C355.481 184.429 356.827 180.415 359.179 176.888C360.617 174.735 363.465 172.49 366.233 174.48C369.178 176.601 365.564 180.58 365.241 185.558C365.081 188.081 364.77 198.752 364.554 203.497C364.213 211.412 362.797 222.735 368.243 228.356C370.926 231.126 377.877 233.902 381.39 232.903C386.79 231.358 392.318 225.109 395.568 220.192C401.201 211.675 403.471 202.713 410.422 195.571C413.201 192.712 416.765 186.055 420.29 189.743C420.732 190.205 421.084 190.745 421.33 191.337C422.236 193.49 417.649 206.895 417.681 210.659C417.729 217.365 418.375 224.253 420.557 230.728C421.291 232.905 425.194 235.79 427.541 236.223C427.541 236.223 434.893 232.692 437.995 229.814C447.27 221.167 459.872 207.011 468.06 197.326C468.06 197.326 475.516 181.358 477.245 178.713C479.263 175.622 482.305 188.153 481.976 192.563C481.976 192.563 481.88 198.24 481.31 202.866C480.277 211.212 469.901 228.569 479.476 237.391C487.638 244.922 508.252 242.38 521.021 228.15C522.303 226.719 521.977 228.722 522.622 229.73C524.42 232.533 522.67 236.177 520.31 239.489C519.239 241.009 519.363 241.233 519.162 241.782C517.613 246.028 515.714 250.809 517.35 254.878C518.209 257.03 519.277 257.188 520.449 257.677C528.486 261.061 538.663 258.133 546.803 254.892C549.838 253.685 552.852 252.285 555.311 250.175L556.03 249.611C558.717 248.248 552.707 259.457 550.169 261.324C540.473 268.472 525.359 283.334 509.758 301.283C498.661 314.081 484.657 330.558 473.68 343.176C469.088 348.454 466.203 355.451 467.467 362.712C469.34 373.49 469.806 384.562 468.679 395.267C468.663 395.414 468.639 395.557 468.611 395.689C485.727 414.805 534.42 470.055 532.945 479.349C532.51 482.092 528.303 485.315 523.929 475.883C514.065 454.604 494.902 433.464 478.713 416.491C473.454 410.977 468.164 405.498 462.847 400.046ZM506.628 245.434C489.094 270.029 471.343 292.827 458.756 321.992C455.349 329.884 451.408 337.727 448.472 345.863C446.016 352.666 443.267 358.578 441.031 365.511C446.637 371.601 456.031 381.738 461.587 387.875L462.598 388.988C462.561 385.768 462.474 381.348 462.277 377.266C461.792 367.279 458.954 357.509 462.448 348.656C462.545 348.418 462.639 348.189 462.741 347.953C467.462 337.117 478.125 329.75 486.111 321.026C499.898 305.964 512.431 289.641 527.406 275.843L538.467 265.687C538.18 265.749 516.512 268.428 510.94 260.26C507.949 255.875 508.414 249.939 509.716 244.257C509.716 244.257 508.278 244.875 506.628 245.434ZM231.435 366.674C237.143 367.972 243.089 368.65 248.884 369.957C257.255 371.839 265.398 374.902 272.263 380.271C280.758 386.857 290.937 393.984 289.204 404.752C289.025 405.867 288.387 407.404 288.387 407.404C288.657 407.344 288.928 407.285 289.2 407.225C300.445 404.888 313.794 404.723 321.326 411.809C324.896 415.17 330.544 417.968 329.719 422.593C329.109 426.003 325.538 427.831 323.39 429.726C318.098 434.29 311.115 436.728 304.291 438.186L303.684 438.317C311.839 438.843 320.29 439.569 326.98 444.395C330.156 446.69 334.871 447.353 335.766 451.832C336.369 454.866 333.274 457.497 331.56 460.043C329.428 463.211 327.518 466.548 325.557 469.845C325.557 469.845 328.419 467.394 330.7 465.507C342.703 455.591 356.501 448.16 370.411 440.872C370.798 440.669 371.184 440.466 371.57 440.262C380.845 435.328 389.381 429.068 397.785 422.676C406.648 415.89 414.099 406.885 424.193 401.985C428.613 399.84 433.682 399.806 438.66 398.959C445.162 397.854 455.579 396.677 461.84 394.839C456.002 388.882 444.259 377.17 438.374 371.251C440.788 368.987 397.838 386.333 378.816 393.741C362.268 400.187 346.165 408.498 331.087 418.828L330.667 419.113C330.667 419.113 329.685 417.265 329.819 417.148C343.457 405.641 359.652 397.426 375.797 389.46C387.022 383.919 399.224 380.091 411.26 376.462C418.264 374.349 428.155 369.844 435.711 368.298C435.711 368.298 417.271 349.205 412.198 344.143C411.643 344.199 399.304 347.577 394.099 348.733C379.965 351.879 372 358.272 357.8 361.056C336.36 365.248 314.215 366.893 292.482 367.434C271.942 367.916 251.77 367.094 231.435 366.674ZM476.638 196.858C466.382 214.535 451.606 239.984 442.234 258.106C434.88 272.323 425.312 281.538 422.411 297.767C420.026 311.121 416.162 323.917 415.531 338.32C421.036 344.119 431.352 355.044 436.814 360.873C440.961 348.772 445.993 336.867 451.68 325.072C464.251 299 480.453 274.174 498.948 251.197C500.23 249.603 501.533 248.017 502.847 246.445C489.404 249.036 473.519 242.56 470.901 228.296C469.474 220.525 475.616 204.815 476.638 196.858ZM412.258 205.508L411.271 207.59C401.743 227.48 392.209 247.434 382.513 267.176L377.609 279.94L370.566 295.361C372.22 296.972 373.874 298.583 375.528 300.194L376.282 300.941C378.74 303.367 409.655 335.436 411.438 337.293C412.494 323.949 413.556 306.57 417.061 293.654C418.071 289.931 419.241 286.266 420.758 282.698C425.68 271.284 432.364 260.625 438.801 250.093C444.981 239.982 451.369 230.005 457.853 220.078L458.381 219.272C460.908 215.454 463.446 211.649 466.002 207.853C465.406 208.545 464.811 209.226 464.233 209.887C460.369 214.279 456.4 218.579 452.305 222.75C447.953 227.188 443.441 231.425 438.903 235.728C435.097 239.31 430.758 242.419 425.421 241.238C421.198 240.3 417.43 237.653 415.228 233.751C410.388 225.179 413.176 214.217 412.258 205.508ZM237.038 285.768C240.374 287.448 247.968 288.604 251.779 289.35C251.962 289.388 251.961 289.388 252.144 289.426C266.202 292.435 280.066 296.811 290.97 308.25C296.952 314.593 302.712 322.494 296.803 331.615C295.164 334.145 293.349 336.581 291.352 338.846C285.762 345.194 278.527 350.002 270.521 352.809C255.602 358.045 239.329 357.747 224.315 361.841C222.584 362.318 219.98 362.65 221.141 363.221C222.046 363.666 222.969 364.061 223.902 364.422C267.138 362.496 310.793 363.815 354.961 353.578C371.223 349.813 391.526 344.11 408.071 340.953C407.894 338.423 391.749 323.291 391.432 323.533C383.221 315.195 372.162 308.718 363.992 300.367C361.678 300.092 357.165 299.552 353.503 299.117C338.256 297.3 322.926 294.776 307.973 294.752C306.401 294.748 304.839 294.7 303.274 294.632C288.242 293.979 273.153 291.633 258.077 289.379L257.218 289.251C251.643 288.373 242.6 286.728 237.038 285.768ZM290.096 217.274C312.742 238.055 338.219 264.516 360.63 285.957L361.58 286.861C363.567 288.794 365.554 290.727 367.543 292.651L374.422 277.344L379.471 266.261C385.121 256.418 390.333 239.869 396.074 230.044C388.88 235.252 377.231 243.571 367.137 234.35C364.092 231.573 361.519 228.264 360.11 224.338C356.618 214.621 360.385 196.864 360.671 186.844C360.671 186.844 360.667 186.776 360.708 186.351C353.031 198.265 343.744 215.876 331.647 222.453C320.126 228.724 305.394 226.153 294.218 219.714C292.836 218.916 291.461 218.103 290.096 217.274ZM270.182 203.456C266.088 200.174 262.151 196.689 258.413 192.98C258.413 192.98 263.197 201.135 265.135 205.445C271.02 218.502 273.804 232.968 282.047 244.898C286.704 251.571 292.454 259.305 287.814 265.637C283.607 271.324 277.866 275.845 271.103 277.981C261.867 280.899 251.885 280.847 242.682 284.114C256.895 284.943 271.111 285.639 285.325 285.951C293.354 286.127 302.476 289.205 310.417 288.711C320.338 288.881 356.464 295.47 356.602 295.096L358.08 295.262C358.908 295.368 359.733 295.482 360.562 295.588L360.048 295.057C348.215 282.818 328.733 261.506 316.907 249.309L315.799 248.156C305.313 237.237 294.4 228.519 283.887 217.675L282.933 216.692C280.291 213.939 277.646 211.195 274.999 208.45C273.394 206.782 271.79 205.115 270.182 203.456ZM353.459 188.257L353.454 188.264C353.465 188.249 353.468 188.241 353.459 188.257Z" fill="#500000"/>
</svg>
