<svg width="774" height="737" viewBox="0 0 774 737" fill="none" xmlns="http://www.w3.org/2000/svg">
<path d="M333.18 640.486C402.005 676.243 470.982 662 482.478 659.626C626.06 627.674 703.537 446.045 667.807 300.585C662.832 280.48 626.407 133.13 497.054 95.409C409.692 70.0422 321.663 106.733 273.033 149.333C134.148 270.178 174.533 557.768 333.18 640.486Z" stroke="#ACACAC" stroke-opacity="0.15" stroke-width="1.58525" stroke-miterlimit="10"/>
<path d="M290.079 627.846C361.337 660.597 433.952 646.01 445.995 643.35C597.243 611.028 682.819 438.336 649.007 301.926C644.438 282.996 609.932 144.695 475.24 111.154C384.284 88.7076 291.221 124.739 239.029 165.563C90.6833 281.822 125.707 552.629 290.079 627.846Z" stroke="#ACACAC" stroke-opacity="0.15" stroke-width="1.58525" stroke-miterlimit="10"/>
<path d="M250.161 568.125C316.661 593.659 385.653 580.274 397.422 577.757C541.543 548.297 627.662 404.615 599.68 293.236C595.835 277.914 567.381 164.702 440.838 139.898C355.499 123.18 266.222 154.63 215.637 189.24C71.9039 287.659 96.8857 509.465 250.161 568.125Z" stroke="#ACACAC" stroke-opacity="0.15" stroke-width="1.58525" stroke-miterlimit="10"/>
<path d="M216.437 509.152C271.061 527.551 328.778 516.598 338.514 514.625C458.718 490.743 532.885 381.395 511.716 297.652C508.815 285.996 487.24 201.08 382.576 184.071C312.005 172.454 237.464 197.235 194.585 224.001C73.7107 299.888 90.4269 466.736 216.437 509.152Z" stroke="#ACACAC" stroke-opacity="0.15" stroke-width="1.58525" stroke-miterlimit="10"/>
<path d="M231.639 461.331C274.325 475.575 319.334 467.11 326.816 465.622C420.56 447.089 478.572 361.792 462.075 296.58C459.661 287.616 442.98 221.287 361.505 207.92C306.598 198.857 248.36 218.23 215.093 238.926C120.269 298.239 133.495 428.258 231.639 461.331Z" stroke="#ACACAC" stroke-opacity="0.15" stroke-width="1.58525" stroke-miterlimit="10"/>
<path d="M184.278 457.853C226.964 472.097 271.973 463.632 279.454 462.144C373.25 443.411 430.989 358.257 414.492 293.045C412.078 284.081 395.397 217.751 313.922 204.385C259.014 195.322 200.776 214.694 167.509 235.391C72.7372 294.503 85.9117 424.722 184.278 457.853Z" stroke="#ACACAC" stroke-opacity="0.15" stroke-width="1.58525" stroke-miterlimit="10"/>
<path d="M145.023 460.536C187.709 474.78 232.717 466.314 240.199 464.827C333.995 446.094 391.733 360.94 375.236 295.727C372.823 286.763 356.141 220.434 274.667 207.068C219.759 198.004 161.521 217.377 128.254 238.073C33.4299 297.386 46.6046 427.606 145.023 460.536Z" stroke="#ACACAC" stroke-opacity="0.15" stroke-width="1.58525" stroke-miterlimit="10"/>
<path d="M570.532 368.46C594.022 340.745 572.386 298.155 569.128 291.539C556.231 266.391 531.785 243.819 523.733 247.511C515.408 251.346 534.921 279.273 532.219 325.408C530.113 361.004 516.556 378.67 525.72 385.316C534.337 392.249 557.974 383.176 570.532 368.46Z" stroke="#ACACAC" stroke-opacity="0.15" stroke-width="1.58525" stroke-miterlimit="10"/>
<path fill-rule="evenodd" clip-rule="evenodd" d="M658.477 535.791C647.201 523.502 633.92 514.686 622.538 502.539C621.197 501.108 614.353 497.811 613.977 495.797C613.532 493.417 616.41 491.792 617.879 490.178C622.486 485.12 629.359 478.202 634.973 479.977C635.567 480.164 639.809 481.979 639.291 479.205C638.899 477.108 633.242 473.466 631.995 472.252C625.276 465.707 615.877 456.838 607.582 454.629C603.281 453.483 598.985 453.508 594.695 452.637C594.279 452.552 591.125 451.143 591.2 450.675C591.484 448.87 593.859 447.213 594.865 446.573C596.892 445.285 613.772 433.15 608.49 427.799C597.178 416.336 564.348 442.185 558.464 424.796C551.315 403.668 556.975 408.958 526.319 425.771C523.453 427.343 533.862 414.068 535.684 411.727C549.14 394.444 568.195 400.375 584.113 393.264C588.974 391.092 593.294 388.006 597.705 385.079C598.083 384.828 601.132 382.497 601.009 381.843C600.151 377.248 588.106 374.464 585.463 373.995C570.796 371.385 555.083 371.581 540.247 370.596C535.418 370.275 531.177 369.209 526.455 367.951C525.969 367.82 522.046 368.428 522.12 367.071C522.261 364.449 525.42 361.202 526.741 359.722C530.719 355.271 534.549 349.613 539.18 346.77C539.86 346.353 547.214 342.334 547.118 341.816C546.225 337.044 533.283 334.375 530.79 333.966C525.078 333.027 519.647 330.963 513.81 332.393C512.604 332.687 509.115 336.877 508.278 336.272C507.761 335.9 508.421 332.647 503.461 335.607C498.303 338.685 493.501 342.029 488.592 345.734C487.355 346.668 485.995 350.708 484.646 350.702C484.079 350.701 486.254 344.255 486.439 343.562C488.359 336.307 490.83 329.328 492.299 321.927C492.578 320.524 493.257 317.245 490.978 317.237C488.884 317.228 486.296 326.104 485.227 328.098C481.999 334.116 477.88 339.352 474.66 345.354C473.716 347.114 469.826 352.039 468.094 352.813C467.258 353.187 464.601 350.05 463.873 349.767C460.757 348.557 456.47 348.876 453.277 348.865C444.815 348.837 430.757 356.622 436.045 340.363C437.52 335.822 437.44 336.062 439.34 331.494C440.566 328.543 441.671 326.009 439.974 327.43C432.043 334.072 420.942 343.177 413.578 351.529C409.546 356.102 405.351 369.675 403.677 371.316C401.661 373.288 396.257 369.179 394.435 368.81C391.159 368.143 386.52 374.47 385.603 378.741C383.974 386.339 395.564 398.766 396.623 405.858C400.318 430.596 398.033 451.659 405.019 475.235C406.691 480.873 408.293 488.61 411.058 493.141C413.214 496.673 418.59 470.152 420.171 466.836C422.083 462.824 425.312 463.127 426.643 466.827C428.392 471.696 427.669 481.956 427.592 487.56C427.417 500.387 427.053 514.272 433.894 522.961C436.474 526.237 442.417 509.759 443.687 506.706C444.467 504.831 445.245 502.957 446.025 501.082C446.505 499.928 448.169 493.516 448.399 494.742C450.223 504.493 450.94 516.566 453.246 526.105C453.446 526.93 453.528 536.121 454.816 535.545C457.543 534.327 462.37 516.969 463.024 513.916C463.477 511.814 463.665 509.549 464.458 507.641C464.818 506.775 465.898 504.182 465.537 505.045C464.072 508.568 464.116 515.529 464.298 519.334C464.916 532.159 467.986 545.378 470.653 557.521C470.992 559.071 473.438 567.342 476.289 566.067C477.001 565.751 476.36 562.897 476.716 562.038C479.479 555.392 482.59 550.482 485.011 543.626C485.328 542.729 488.978 532.874 490.229 532.315C491.807 531.61 494.076 536.929 494.407 538.047C497.468 548.378 494.046 495.088 497.629 505.075C498.726 508.132 510.51 560.256 510.812 554.629C511.503 541.819 510.944 531.613 511.594 520.008C511.761 517.013 512.009 513.925 512.38 510.674C513.04 504.891 512.242 499.951 513.014 495.04C513.531 491.748 515.751 496.598 516.989 499.324C520.072 506.11 520.761 512.118 525.157 517.156C525.584 517.644 529.532 520.947 530.334 520.59C532.399 519.666 531.136 493.354 531.559 494.222C535.185 501.662 536.934 515.897 538.53 524.427C540.759 536.345 545.124 542.406 550.111 551.807C550.823 553.151 557.086 567.973 559.591 565.518C564.836 560.38 561.103 545.78 561.86 539.151C562.243 535.791 562.886 532.441 563.648 529.195C563.915 528.055 564.304 525.733 564.304 525.733C564.304 525.733 568.605 541.953 569.593 545.796C572.896 558.64 571.984 558.786 576.696 567.673C577.38 568.961 578.097 574.866 579.862 574.076C580.694 573.705 582.31 568.189 582.74 567.156C585.776 559.852 585.544 551.04 586.55 542.914C586.89 540.165 587.351 537.454 587.619 534.689C587.628 534.58 587.736 531.962 587.915 532.091C590.317 533.825 591.546 543.459 592.757 546.833C596.956 558.536 603.199 566.408 609.185 576.124C611.177 579.36 615.897 587.623 619.681 587.636C621.534 587.643 621.591 580.049 621.41 578.764C619.865 567.803 618.134 556.637 615.331 546.258C615.105 545.418 612.577 532.642 612.798 532.687C615.997 533.335 638.912 545.586 646.583 550.261C651.327 553.153 661.813 553.68 667.524 551.131C667.524 551.131 663.015 540.738 658.477 535.791Z" fill="#F1A825"/>
<path fill-rule="evenodd" clip-rule="evenodd" d="M652.266 552.232C647.953 550.425 628.207 542.313 622.957 540.169C622.092 539.808 621.96 539.717 621.508 539.467C619.63 538.426 617.954 537.054 616.067 536.036L615.988 535.993C618.724 549.472 621.863 562.648 623.779 576.403C624.768 583.524 623.518 599.051 612.824 583.178C605.365 572.109 596.442 566.422 592.128 554.164C590.839 550.391 589.717 540.886 588.366 537.091C588.366 537.091 588.456 545.45 587.966 551.163C587.138 560.784 581.628 577.227 581.628 577.227C580.181 578.125 576.245 573.137 575.362 571.617C575.147 571.241 563.933 529.946 563.933 529.946C563.566 531.66 563.991 537.571 563.73 539.304C562.356 548.615 565.003 555.202 561.461 564.374C561.343 564.683 559.849 567.326 559.582 567.626C557.038 570.487 553.218 562.947 550.605 556.637C545.894 545.29 538.227 535.511 536.306 522.487C535.051 513.999 533.501 499.605 533.501 499.605C532.279 506.131 534.745 513.288 532.083 519.29C531.952 519.588 530.904 522.539 530.846 522.683C530.486 523.57 530.11 523.071 528.852 522.188C521.472 517.004 521.498 509.128 515.796 501.18C514.865 499.884 514.47 497.711 513.724 496.115C513.08 501.469 514.784 504.463 514.207 510.163C513.274 519.565 513.492 529.34 513.114 538.561C512.863 544.619 511.975 550.08 511.681 556.297C511.653 556.656 511.643 556.679 511.608 556.837C511.289 558.019 509.425 558.201 508.708 555.889C506.705 549.45 505.594 542.732 504.21 536.088C502.231 526.605 500.371 517.074 498.32 507.669C497.299 517.902 498.217 528.242 496.496 538.372C496.221 539.986 495.239 542.611 493.137 540.91C492.234 540.182 491.03 534.744 489.856 535.051C488.682 535.358 487.539 541.409 486.864 543.282C485.252 547.752 483.488 552.177 481.69 556.585C480.247 560.116 479.293 563.901 477.541 567.205C475.832 570.42 470.865 567.537 468.68 557.597C466.181 546.233 464.582 534.737 463.758 523.119C463.758 523.119 460.329 532.946 458.858 534.957C457.706 536.536 455.299 537.443 453.798 535.796C451.55 533.322 451.443 529.161 450.645 525.797C449.208 519.621 448.1 496.753 448.1 496.753C445.679 503.231 443.563 517.495 439.753 522.022C437.965 524.143 434.708 528.407 431.424 524.289C423.959 514.852 425.357 478.337 424.579 465.847C422.855 465.163 422.025 464.898 420.558 470.987C418.354 480.137 415.41 497.176 411.72 495.175C406.862 492.546 406.474 487.281 405.095 482.272C402.037 471.178 400.023 465.145 398.765 453.741C396.985 437.566 395.768 420.745 393.484 404.661C392.454 397.759 384.343 391.975 382.88 384.775C375.449 379.883 367.909 375.12 360.213 370.559C349.667 364.316 337.771 360.531 327.16 354.338C327.16 354.338 327.207 354.368 327.3 354.424C322.295 351.817 323.905 345.079 326.912 337.582C330.343 329.023 354.477 352.558 368.578 360.162C374.011 363.904 381.916 369.981 387.237 373.895C388.331 371.817 389.331 370.041 391.148 368.441C393.818 366.091 397.664 368.095 401.275 370.36C401.275 370.36 407.569 356.522 409.897 353.074C414.589 346.125 419.595 341.816 425.795 336.304C430.977 331.695 432.671 330.675 438.02 326.254C438.02 326.254 440.16 321.168 442.856 324.394C443.971 325.723 440.333 333.207 438.729 337.571C437.622 340.589 437.825 345.304 438.343 348.313C438.343 348.313 449.079 347.814 450.305 347.732C455.716 347.372 465.947 346.317 469.946 350.015C471.645 347.001 473.104 343.872 474.976 340.937C478.792 334.957 480.692 334.391 483.863 327.874C486.287 322.922 488.778 313.039 493.167 314.83C496.437 316.157 490.226 333.397 489.694 336.162C488.858 340.486 491.69 338.823 491.851 339.227C491.851 339.227 494.453 337.483 496.433 336.164C497.375 335.534 498.328 334.913 499.294 334.301C499.933 333.894 500.581 333.491 501.232 333.092C504.162 331.297 507.405 328.793 510.473 331.118C512.305 329.483 514.42 328.236 517.076 327.979C522.686 327.436 528.353 329.19 533.752 330.288C538.884 331.351 544.237 332.652 548.231 335.899C550.069 337.395 552.015 339.837 550.674 342.116C550.062 343.164 548.895 343.774 547.819 344.434C544.039 346.757 540.132 348.646 536.863 352.183C534.026 355.247 531.473 358.496 528.663 361.66C527.788 362.658 524.411 366.483 524.592 366.48C524.701 366.478 537.437 366.723 543.043 367.095C557.56 368.053 572.133 367.988 586.409 370.504C592.071 371.499 598.041 373.029 602.065 376.564C604.001 378.261 609.596 377.392 607.126 379.794C604.31 382.531 596.644 388.115 593.242 390.222C585.11 395.259 575.665 397.251 565.293 398.754C554.885 400.285 544.68 403.909 538.086 412.37C537.767 412.78 537.448 413.191 537.13 413.603C535.675 415.481 534.233 417.369 532.826 419.28L532.77 419.353C538.671 415.879 544.138 411.433 550.216 408.585C551.932 407.78 553.99 407.375 555.617 408.557C557.864 410.18 558.436 413.109 559.247 415.636C560.594 419.805 561.236 424.659 564.27 426.731C568.231 429.45 573.443 427.986 577.586 427.099C578.812 426.836 580.038 426.549 581.261 426.252C591.149 423.841 602.347 419.684 609.673 426.155C610.998 427.332 613.255 425.819 613.221 427.65C613.132 432.647 607.411 439.282 603.903 442.223C600.985 444.67 597.26 446.532 595.12 448.841L596.448 449.483C601.459 450.487 606.727 450.366 611.525 452.183C620.477 455.563 627.676 462.935 634.721 469.643C638.184 472.8 644.299 475.513 642.357 479.924C642.254 480.173 642.111 480.413 641.943 480.632C639.931 483.275 635.766 482.041 633.77 481.949C627.798 481.675 622.772 488.603 618.719 492.265C617.977 492.946 617.27 494.137 617.27 494.137C619.359 496.829 628.182 506.354 630.802 509.133C644.781 520.433 669.726 548.218 670.936 548.297C675.228 548.577 677.067 557.072 673.154 556.886C673.154 556.886 658.557 554.875 652.266 552.232ZM521.181 363.981C522.087 361.039 524.553 358.625 526.613 356.246C531.213 350.89 535.385 345.482 541.946 341.685C543.063 341.037 544.703 340.042 544.703 340.042C539.268 335.936 531.393 335.502 524.634 334.207C521.819 333.68 518.927 333.343 516.092 333.968C516.092 333.968 514.359 335.524 513.077 336.579C511.408 337.954 508.661 339.188 506.966 336.581C506.844 336.645 506.73 336.709 506.608 336.777C501.435 339.739 496.574 343.302 491.794 346.94C490.228 348.915 489.516 352.508 486.061 352.639C481.833 352.798 482.526 349.201 483.128 346.838C483.416 345.698 483.753 344.568 484.101 343.442C485.748 338.092 487.266 332.613 488.739 327.105C488.739 327.105 480.821 338.458 477.757 344.224C475.29 348.875 473.7 356.005 468.532 355.173C466.624 354.871 465.124 353.25 463.542 351.863C463.542 351.863 461.334 351.354 459.715 351.302C449.086 350.945 436.77 357.73 433.064 348.636C430.864 343.236 433.881 337.028 435.495 332.797L434.307 333.833C424.488 341.818 416.398 349.315 409.784 360.705C407.218 365.126 408.024 371.881 402.019 373.727C399.748 374.426 397.324 373.462 395.177 372.045C395.177 372.045 392.873 374.196 391.636 376.821C396.871 380.747 402.044 384.731 407.187 388.731C421.817 388.827 450.271 386.381 450.768 386.269C457.782 384.704 467.594 381.539 473.878 379.403C478.294 377.903 482.41 376.4 486.042 375.098C486.543 374.919 487.035 374.743 487.512 374.573M402.763 398.238C399.884 396.243 396.991 394.258 394.093 392.285C395.738 396.297 397.526 400.325 398.142 404.41C401.739 428.194 400.675 453.097 407.369 476.383C408.709 481.049 409.534 485.928 411.576 490.239C414.543 482.58 415.367 474.182 418.5 466.477C419.501 464.009 421.899 460.836 425.498 462.193C429.41 463.664 429.753 469.627 429.859 474.299C430.033 482.228 428.873 490.162 429.472 498.084C430.066 505.988 431.552 514.001 435.275 520.88C437.983 515.805 439.831 510.331 441.953 505.041C442.986 502.509 444.441 499.654 444.95 498.108C445.698 495.799 446.675 492.39 449.454 493.587C447.782 485.925 450.305 476.597 445.74 471.041C438.217 461.696 432.201 451.056 428.823 440.471C426.937 434.569 427.001 428.295 423.756 422.792C418.262 413.475 409.466 406.113 402.763 398.238ZM595.54 383.961C595.819 383.772 597.483 382.333 597.755 382.149C598.631 381.541 597.07 380.29 597.07 380.29C593.928 376.288 589.555 375.522 583.952 374.669C569.622 372.489 554.867 372.938 540.627 371.835C536.138 371.487 531.711 370.436 527.323 369.292C524.492 369.36 520.717 369.024 520.859 365.695C520.859 365.695 498.045 375.095 486.786 380.162L486.488 380.296C485.171 380.89 483.855 381.492 482.547 382.112C482.329 382.216 482.111 382.32 481.893 382.424L481.645 382.545C481.388 382.666 481.388 382.666 481.122 382.788C478.864 383.811 476.546 384.688 474.217 385.51C474.064 385.564 473.91 385.617 473.748 385.675C464.531 388.801 454.839 390.71 444.87 391.657C433.925 392.697 422.651 392.576 411.313 391.63L411.275 391.627L410.844 391.589C425.07 402.738 438.975 413.982 452.675 424.62C456.624 424.265 460.533 421.172 463.083 418.533C472.058 409.245 478.545 396.156 492.966 394.171C500.563 393.176 518.06 393.434 518.06 393.434C523.007 392.867 540.899 389.766 544.379 389.421M452.203 499.563C452.308 501.172 452.327 502.899 452.518 504.493C453.375 511.549 453.964 518.67 455.588 525.603C455.878 526.938 456.105 528.3 456.424 529.642C459.364 523.191 461.341 516.334 462.656 509.35C463.084 507.139 463.944 505.045 464.815 502.98C465.732 500.816 469.815 501.457 468.549 505.414C466.825 510.955 467.54 517.121 467.883 522.852C468.548 533.943 469.975 544.924 472.202 555.884C472.644 558.058 473.08 560.297 473.81 562.336C476.167 549.117 481.072 512.926 481.072 512.926C482.121 504.19 484.997 497.172 484.401 486.611C483.883 476.991 483.36 467.611 478.495 458.17C476.855 454.999 475.37 449.615 476.064 449.75C471.859 446.732 437.419 422.443 437.419 422.443C432.343 418.939 427.291 415.403 422.247 411.861C427.343 417.066 431.563 422.78 432.801 429.601C435.075 442.132 441.412 453.858 446.311 462.39C447.896 465.152 449.987 467.798 451.082 470.384C453.944 477.193 451.35 484.75 451.714 492.468M604.289 427.878C602.182 427.166 599.391 426.861 596.733 427.136C587.796 428.068 579.372 432.023 570.245 432.162C565.207 432.238 559.804 429.998 557.838 424.41C556.427 420.291 555.896 415.573 553.517 412.135C552.706 410.974 550.309 413.068 547.657 414.775C541.52 418.741 535.316 422.646 528.899 426.181C528.899 426.181 525.375 427.841 525.077 424.81C524.914 423.141 526.256 421.635 527.329 420.068C532.787 412.096 538.565 403.951 546.838 399.698C558.004 393.957 571.673 395.372 583.111 390.813C586.364 389.517 589.371 387.736 592.311 385.813C579.044 389.29 574.264 387.78 561.281 389.744L546.394 392.086C540.904 392.867 540.286 394.205 534.789 394.913C534.789 394.913 531.294 395.343 528.64 395.657C525.245 396.059 521.834 396.393 518.425 396.756L517.785 396.824C514.98 397.096 512.167 397.368 509.36 397.635C503.913 398.151 498.514 398.364 492.935 399.075C477.166 401.184 468.457 424.32 455.419 426.748C466.694 435.463 477.996 444.153 489.246 452.645C504.206 452.748 519.033 452.758 534.167 449.701C547.68 446.972 561.005 441.884 570.545 438.491M476.487 559.798C477.621 557.294 482.436 546.526 484.436 539.861C484.914 538.255 490.06 528.475 491.757 530.265C492.713 531.271 493.255 532.626 493.785 533.946L493.794 533.972C494.555 524.673 494.389 515.252 495.571 506.041C495.865 503.786 496.194 500.447 498.666 501.369C500.385 502.011 500.546 504.498 501.068 506.98C503.98 520.748 506.422 534.629 509.402 548.386C509.402 548.386 509.978 521.92 511.523 508.359C512.146 502.817 510.113 497.012 511.472 491.828C511.794 490.603 513.494 490.163 514.77 491.845C519.768 498.472 520.781 507.924 526.776 515.081C527.668 516.138 528.437 517.361 529.584 518.111C530.428 516.665 530.439 514.637 530.602 512.731C531.025 507.676 529.509 502.101 530.647 496.188C531.083 493.922 531.062 491.575 532.943 492.162C533.576 492.358 533.797 493.266 534.1 494.071C537.886 503.959 538.266 514.963 540.768 525.696C542.919 534.97 546.212 541.714 550.681 550.061C553.038 554.617 553.436 559.784 557.166 563.75C558.232 564.886 557.838 561.818 558.603 560.559C563.608 552.361 558.491 540.277 559.828 531.274C560.218 528.674 560.869 514.745 563.207 515.312C564.38 515.594 566.278 523.023 566.589 527.248C567.506 539.824 576.819 567.48 579.27 569.294C579.27 569.294 580.307 564.716 581.266 562.129C584.586 552.946 585.635 520.644 588.081 522.958C589.544 524.345 592.127 533.915 592.71 536.001C594.099 541.012 596.362 553.15 598.505 557.824C602.812 567.256 607.827 568.681 613.26 577.261C615.446 580.693 618.35 584.792 620.665 585.217C620.665 585.217 621.585 578.996 621.114 575.733C619.616 565.527 615.862 557.095 613.225 546.932C612.679 544.745 611.427 537.781 610.518 532.584C607.5 530.995 604.547 529.302 601.663 527.499C588.385 519.24 572.419 516.211 558.699 508.425C558.051 508.06 557.418 507.684 556.775 507.304C553.612 505.404 550.629 503.191 547.596 501.044C525.839 485.621 479.815 452.438 479.815 452.438L477.656 450.886C477.748 451.041 477.909 452.655 477.879 452.595C482.812 460.839 487.026 469.081 488.342 479.802C489.422 488.621 487.869 494.365 486.127 504.021C484.743 511.659 484.728 515.219 483.329 522.632C482.974 524.533 482.687 535.892 481.824 539.625C480.26 546.415 478.487 553.105 476.487 559.798ZM637.677 477.412C635.387 474.923 632.381 473.132 629.856 470.699C622.987 464.105 616.744 459.795 607.769 457.943C604.051 457.177 599.267 454.244 595.52 453.495C595.52 453.495 584.556 450.548 594.787 443.834C599.468 440.764 604.408 437.554 607.119 432.746C607.331 432.367 607.526 431.968 607.653 431.554C608.076 430.229 607.983 428.991 606.235 428.186L604.865 429.201C593.032 434.211 581.256 438.923 569.514 444.217C567.89 444.948 564.413 446.587 564.155 446.706C561.741 447.8 559.274 448.721 556.781 449.592C537.284 456.205 493.221 455.453 492.938 455.424C496.057 457.764 509.805 467.895 513.314 470.436L513.641 470.666C520.962 475.865 528.326 480.978 535.767 486.002L536.244 486.322C536.85 486.723 537.456 487.126 538.063 487.53C542.45 487.979 547.125 489.034 552.229 489.376C564.638 490.211 576.979 489.108 589.756 484.836C595.238 483.004 600.274 481.146 605.674 480.445C613.359 479.444 621.16 479.387 628.829 478.674C630.813 477.882 632.895 477.547 635.08 477.911C635.355 477.868 637.093 477.562 637.677 477.412ZM543.427 491.127C552.13 496.942 560.959 502.623 570.776 506.109C583.4 510.59 606.975 525.908 618.948 532.249C628.14 537.081 660.083 551.424 664.114 548.369C664.114 548.369 652.356 534.119 636.811 519.574C625.21 508.726 608.369 497.511 609.597 493.011C610.163 490.932 616.975 488.259 618.503 486.638C620.062 485.002 621.732 483.347 623.517 481.915C623.037 481.996 618.811 482.698 616.432 483.094C609.845 484.194 602.89 484.483 597.112 487.405C596.321 487.792 591.408 489.639 590.49 489.924C576.023 494.403 560.652 494.32 544.578 491.35C544.198 491.278 543.809 491.205 543.427 491.127Z" fill="#500000"/>
</svg>
